# xmcd
#
# Track frame offsets: 
#        150
#        12822
#        25015
#        39935
#        53995
#        67237
#        78217
#        93547
#        105215
#        124035
#        135597
#        156427
#        170380
#        188895
#        199905
#        215760
#        231837
#        248642
#        260200
#        276782
#        293307
#
# Disc length: 3995 seconds
#
# Revision: 4
# Processed by: cddbd v1.5.2PL0 Copyright (c) Steve Scherf et al.
# Submitted via: ExactAudioCopy v0.99pb4
#
DISCID=240f9915
DTITLE=Aretha Franklin - Jazz To Soul [CD1]
DYEAR=1992
DGENRE=Soul
TTITLE0=Today I Sing The Blues
TTITLE1=(Blue) By Myself
TTITLE2=Maybe I'm A Fool
TTITLE3=All Night Long
TTITLE4=Blue Holiday
TTITLE5=Nobody Like You
TTITLE6=Sweet Lover
TTITLE7=Just For A Thrill
TTITLE8=If Ever I Would Leave You
TTITLE9=Once In A While
TTITLE10=This Bitter Earth
TTITLE11=God Bless The Child
TTITLE12=Skylark
TTITLE13=Muddy Water
TTITLE14=Drinking Again
TTITLE15=What A Difference A Day Makes
TTITLE16=Unforgettable
TTITLE17=Love For Sale
TTITLE18=Misty
TTITLE19=Impossible
TTITLE20=This Could Be The Start Of Something
EXTD=Two disk set
EXTT0=
EXTT1=
EXTT2=
EXTT3=
EXTT4=
EXTT5=
EXTT6=
EXTT7=
EXTT8=
EXTT9=
EXTT10=
EXTT11=
EXTT12=
EXTT13=
EXTT14=
EXTT15=
EXTT16=
EXTT17=
EXTT18=
EXTT19=
EXTT20=
PLAYORDER=
